<svg xmlns="http://www.w3.org/2000/svg" viewBox="0 0 32 32" width="32" height="32">
  <defs>
    <linearGradient id="g" x1="0" y1="0" x2="1" y2="1">
      <stop offset="0" stop-color="#f5c877"/>
      <stop offset="1" stop-color="#e0a13c"/>
    </linearGradient>
  </defs>
  <rect width="32" height="32" rx="8" fill="#171821"/>
  <g fill="url(#g)">
    <path d="M6 12h20a2 2 0 0 1 2 2v10a2 2 0 0 1-2 2H6a2 2 0 0 1-2-2V14a2 2 0 0 1 2-2Z" opacity="0.18"/>
    <path d="M5.2 7.2 9 6.3l1.2 3.3-3.8.9zM11.2 5.9 15 5l1.2 3.3-3.8.9zM17.2 4.6 21 3.7 22.2 7l-3.8.9zM4 10.4 28 5.6l.5 2.6-24 4.8z"/>
    <path d="M13.5 15.5v7l6-3.5z"/>
  </g>
</svg>
